<?xml version="1.0" encoding="utf-8"?>
<svg width="376" height="245" viewBox="0 0 376 245" xmlns="http://www.w3.org/2000/svg">
<rect id="frame" x="0" y="0" width="376" height="245" fill="#ffffbf" stroke="none" stroke-width="0"/>

<!-- Association Est catégorisé -->
<g class="page_0_201R3o6D diagram_page" visibility="visible">
	<line x1="181" y1="177" x2="59" y2="177" stroke="#66bd63" stroke-width="2"/>
	<text x="115" y="194" fill="#d73027" font-family="Verdana" font-size="12">1,1</text>
	<line x1="59" y1="51" x2="59" y2="177" stroke="#66bd63" stroke-width="2"/>
	<text x="64" y="93" fill="#d73027" font-family="Verdana" font-size="12">1,N</text>
	<g>
		<path d="M95 152 a14 14 90 0 1 14 14 V177 h-100 V166 a14 14 90 0 1 14 -14" fill="#a6d96a" stroke="#a6d96a" stroke-width="0"/>
		<path d="M109 177 v11 a14 14 90 0 1 -14 14 H23 a14 14 90 0 1 -14 -14 V177 H100" fill="#d9ef8b" stroke="#d9ef8b" stroke-width="0"/>
		<rect x="9" y="152" width="100" height="50" fill="none" rx="14" stroke="#66bd63" stroke-width="2"/>
		<line x1="9" y1="177" x2="109" y2="177" stroke="#66bd63" stroke-width="1"/>
		<text x="16" y="169.75" fill="#000" font-family="Verdana" font-size="12">Est catégorisé</text>
	</g>
</g>

<!-- Association Est remisé -->
<g class="page_0_201R3o6D diagram_page" visibility="visible">
	<line x1="181" y1="177" x2="292" y2="177" stroke="#66bd63" stroke-width="2"/>
	<text x="226" y="194" fill="#d73027" font-family="Verdana" font-size="12">0,N</text>
	<line x1="292" y1="51" x2="292" y2="177" stroke="#66bd63" stroke-width="2"/>
	<text x="297" y="110" fill="#d73027" font-family="Verdana" font-size="12">0,N</text>
	<g>
		<path d="M317 152 a14 14 90 0 1 14 14 V177 h-78 V166 a14 14 90 0 1 14 -14" fill="#a6d96a" stroke="#a6d96a" stroke-width="0"/>
		<path d="M331 177 v11 a14 14 90 0 1 -14 14 H267 a14 14 90 0 1 -14 -14 V177 H78" fill="#d9ef8b" stroke="#d9ef8b" stroke-width="0"/>
		<rect x="253" y="152" width="78" height="50" fill="none" rx="14" stroke="#66bd63" stroke-width="2"/>
		<line x1="253" y1="177" x2="331" y2="177" stroke="#66bd63" stroke-width="1"/>
		<text x="260" y="169.75" fill="#000" font-family="Verdana" font-size="12">Est remisé</text>
	</g>
</g>

<!-- Entity Catégorie -->
<g class="page_0_201R3o6D diagram_page" visibility="visible">
	<g>
		<rect x="24" y="26" width="70" height="25" fill="#fdae61" stroke="#fdae61" stroke-width="0" opacity="1"/>
		<rect x="24" y="51" width="70" height="25" fill="#fee08b" stroke="#fee08b" stroke-width="0" opacity="1"/>
		<rect x="24" y="26" width="70" height="50" fill="none" stroke="#f46d43" stroke-width="2" opacity="1"/>
		<line x1="24" y1="51" x2="94" y2="51" stroke="#f46d43" stroke-width="1"/>
	</g>
	<text x="30" y="43.75" fill="#000" font-family="Verdana" font-size="12">Catégorie</text>
	<text x="29" y="68.8" fill="#000" font-family="Verdana" font-size="12">Libellé</text>
	<line x1="29" y1="71" x2="68" y2="71" stroke="#000" stroke-width="1"/>
</g>

<!-- Entity Promotion -->
<g class="page_0_201R3o6D diagram_page" visibility="visible">
	<g>
		<rect x="217" y="9" width="150" height="25" fill="#fdae61" stroke="#fdae61" stroke-width="0" opacity="1"/>
		<rect x="217" y="34" width="150" height="59" fill="#fee08b" stroke="#fee08b" stroke-width="0" opacity="1"/>
		<rect x="217" y="9" width="150" height="84" fill="none" stroke="#f46d43" stroke-width="2" opacity="1"/>
		<line x1="217" y1="34" x2="367" y2="34" stroke="#f46d43" stroke-width="1"/>
	</g>
	<text x="261" y="26.75" fill="#000" font-family="Verdana" font-size="12">Promotion</text>
	<text x="222" y="51.8" fill="#000" font-family="Verdana" font-size="12">Date de début</text>
	<line x1="222" y1="54" x2="309" y2="54" stroke="#000" stroke-width="1"/>
	<text x="222" y="68.8" fill="#000" font-family="Verdana" font-size="12">Date de fin</text>
	<line x1="222" y1="71" x2="290" y2="71" stroke="#000" stroke-width="1"/>
	<text x="222" y="85.8" fill="#000" font-family="Verdana" font-size="12">Pourcentage de remise</text>
	<line x1="222" y1="88" x2="362" y2="88" stroke="#000" stroke-width="1"/>
</g>

<!-- Entity Produit -->
<g class="page_0_201R3o6D diagram_page" visibility="visible">
	<g>
		<rect x="141" y="118" width="80" height="25" fill="#fdae61" stroke="#fdae61" stroke-width="0" opacity="1"/>
		<rect x="141" y="143" width="80" height="93" fill="#fee08b" stroke="#fee08b" stroke-width="0" opacity="1"/>
		<rect x="141" y="118" width="80" height="118" fill="none" stroke="#f46d43" stroke-width="2" opacity="1"/>
		<line x1="141" y1="143" x2="221" y2="143" stroke="#f46d43" stroke-width="1"/>
	</g>
	<text x="159" y="135.75" fill="#000" font-family="Verdana" font-size="12">Produit</text>
	<text x="146" y="160.8" fill="#000" font-family="Verdana" font-size="12">Id</text>
	<line x1="146" y1="163" x2="160" y2="163" stroke="#000" stroke-width="1"/>
	<text x="146" y="177.8" fill="#000" font-family="Verdana" font-size="12">Libellé</text>
	<text x="146" y="194.8" fill="#000" font-family="Verdana" font-size="12">Description</text>
	<text x="146" y="211.8" fill="#000" font-family="Verdana" font-size="12">Prix</text>
	<text x="146" y="228.8" fill="#000" font-family="Verdana" font-size="12">Image</text>
</g>
</svg>